<svg xmlns:dc="http://purl.org/dc/elements/1.1/" xmlns:cc="http://creativecommons.org/ns#" xmlns:rdf="http://www.w3.org/1999/02/22-rdf-syntax-ns#" xmlns:svg="http://www.w3.org/2000/svg" xmlns="http://www.w3.org/2000/svg" xmlns:sodipodi="http://sodipodi.sourceforge.net/DTD/sodipodi-0.dtd" xmlns:inkscape="http://www.inkscape.org/namespaces/inkscape" width="16.933333" height="16.933334" version="1.1" inkscape:version="0.92.3 (2405546, 2018-03-11)" sodipodi:docname="22-Remote employee.svg" inkscape:export-filename="/home/wanzabuyumna/@WANZ_DESIGN/NICON STUDIO MAGANG/Style Line/Style Line/Icon 8/Icon 8.png" inkscape:export-xdpi="96" inkscape:export-ydpi="96"><rect id="backgroundrect" width="100%" height="100%" x="0" y="0" fill="none" stroke="none"/>
  <defs id="defs2"/>
  <sodipodi:namedview id="base" pagecolor="#ffffff" bordercolor="#959595" borderopacity="1" inkscape:pageopacity="0" inkscape:pageshadow="2" inkscape:zoom="9.0666667" inkscape:cx="38.729284" inkscape:cy="43.349171" inkscape:document-units="px" inkscape:current-layer="layer1" inkscape:document-rotation="0" showgrid="false" units="px" inkscape:window-width="1920" inkscape:window-height="1040" inkscape:window-x="0" inkscape:window-y="0" inkscape:window-maximized="1" inkscape:pagecheckerboard="0"/>
  <metadata id="metadata5">
    <rdf:RDF>
      <cc:Work rdf:about="">
        <dc:format>image/svg+xml</dc:format>
        <dc:type rdf:resource="http://purl.org/dc/dcmitype/StillImage"/>
      </cc:Work>
    </rdf:RDF>
  </metadata>
  
<g class="currentLayer" style=""><title>Layer 1</title><g inkscape:label="22-Remote employee" inkscape:groupmode="layer" id="layer1" class="" fill="#ffffff" fill-opacity="1">
    <path style="color: rgb(0, 0, 0); font: medium sans-serif; font-feature-settings: normal; text-indent: 0px; text-align: start; text-decoration: none solid rgb(0, 0, 0); letter-spacing: normal; word-spacing: normal; text-transform: none; writing-mode: lr-tb; direction: ltr; text-orientation: mixed; dominant-baseline: auto; baseline-shift: baseline; text-anchor: start; white-space: normal; clip-rule: nonzero; display: inline; overflow: visible; visibility: visible; opacity: 1; isolation: auto; mix-blend-mode: normal; color-interpolation: srgb; color-interpolation-filters: linearrgb; vector-effect: none; fill-rule: nonzero; stroke: none; stroke-width: 2; stroke-linecap: butt; stroke-linejoin: round; stroke-miterlimit: 4; stroke-dasharray: none; stroke-dashoffset: 0; stroke-opacity: 1; color-rendering: auto; image-rendering: auto; shape-rendering: auto; text-rendering: auto;" d="m 32,2 c -1.831597,0.00214 -3.024249,0.1867026 -3.919922,0.6347656 -1.028598,0.5145827 -1.415122,1.2857561 -1.697266,1.9257813 -0.281952,0.640063 -0.468793,1.1559172 -0.96875,1.7285156 -0.499918,0.5725984 -1.345919,1.2281394 -3.02539,1.9042969 -1.679509,0.6761574 -2.74553,0.7884578 -3.50586,0.7226562 -0.760289,-0.065764 -1.257189,-0.3114159 -1.90625,-0.5761718 -0.786935,-0.320882 -1.556628,-0.5173049 -2.560546,-0.2050782 -1.00388,0.312567 -2.026088,1.0440762 -3.447266,2.4355464 -1.4211401,1.391434 -2.1781499,2.397568 -2.5097656,3.394532 -0.3575433,1.074897 -0.085196,1.911174 0.1699218,2.5625 0.2547403,0.651289 0.4919707,1.140465 0.5449219,1.896484 0.052913,0.755981 -0.082026,1.816519 -0.7890625,3.476563 C 7.677616,23.560398 7.0096289,24.394336 6.421875,24.890625 5.8341585,25.386953 5.2921388,25.573784 4.6347656,25.873047 3.9773924,26.172385 3.2055987,26.605755 2.6933594,27.652344 2.2186507,28.622133 2.0170079,29.919417 2,31.992188 c -3.78e-5,0.0028 0.00195,0.004 0.00195,0.0078 0,0.0028 -0.00199,0.004 -0.00195,0.0078 0.018898,2.072655 0.2188019,3.370017 0.6933594,4.339844 0.5122393,1.046589 1.284033,1.480034 1.9414062,1.779297 0.6573732,0.299339 1.1993929,0.486132 1.7871094,0.982422 0.5877539,0.496328 1.255741,1.330228 1.9628906,2.990234 0.7071118,1.660044 0.8420137,2.720544 0.7890625,3.476563 -0.052913,0.755981 -0.2898792,1.245196 -0.5449219,1.896484 -0.2547401,0.651288 -0.5272762,1.48764 -0.1699218,2.5625 0.3314645,0.996964 1.0886255,2.003097 2.5097656,3.394532 1.421178,1.391433 2.443386,2.123131 3.447266,2.435546 1.003918,0.312567 1.773611,0.116182 2.560546,-0.205078 0.649061,-0.264945 1.145961,-0.510332 1.90625,-0.576172 0.76033,-0.06576 1.826351,0.0465 3.50586,0.722657 1.679471,0.676195 2.525472,1.331697 3.02539,1.904297 0.499957,0.572598 0.686608,1.08849 0.96875,1.728515 0.281954,0.640063 0.668668,1.411236 1.697266,1.925781 C 28.975751,61.813335 30.168403,61.998148 32,62 c 1.831597,-0.002 3.024211,-0.186703 3.919922,-0.634766 1.02856,-0.514545 1.415085,-1.285756 1.697266,-1.925781 0.281952,-0.640025 0.468789,-1.155917 0.96875,-1.728515 0.499955,-0.5726 1.345919,-1.228102 3.02539,-1.904297 1.679509,-0.676158 2.745569,-0.788496 3.50586,-0.722657 0.760327,0.06576 1.257228,0.311454 1.90625,0.576172 0.786973,0.320882 1.556628,0.517343 2.560546,0.205078 1.003918,-0.312567 2.026122,-1.044113 3.447266,-2.435546 1.421136,-1.391435 2.17815,-2.397568 2.509766,-3.394532 0.357543,-1.07486 0.0852,-1.911212 -0.169922,-2.5625 -0.25474,-0.651326 -0.491971,-1.140503 -0.544922,-1.896484 -0.05291,-0.756019 0.08203,-1.816519 0.789062,-3.476563 0.70715,-1.660044 1.375133,-2.493906 1.962891,-2.990234 0.587713,-0.49629 1.129698,-0.683197 1.787109,-0.982422 0.657377,-0.299338 1.429167,-0.732708 1.941407,-1.779297 C 61.781311,35.377829 61.98303,34.080554 62,32 c -0.0189,-2.080554 -0.218836,-3.377829 -0.693359,-4.347656 -0.51224,-1.04659 -1.28403,-1.480034 -1.941407,-1.779297 -0.657411,-0.299339 -1.199396,-0.486094 -1.787109,-0.982422 -0.587758,-0.496554 -1.255741,-1.33019 -1.962891,-2.990234 -0.707111,-1.660006 -0.84201,-2.720544 -0.789062,-3.476563 0.05291,-0.755981 0.289917,-1.245158 0.544922,-1.896484 0.25474,-0.651288 0.527314,-1.487602 0.169922,-2.5625 C 55.209551,12.967843 54.452386,11.961747 53.03125,10.570312 51.610106,9.1788799 50.587902,8.4471814 49.583984,8.1347656 48.580066,7.8221987 47.810411,8.0185838 47.023438,8.3398438 46.374416,8.6047886 45.877515,8.8502141 45.117188,8.9160156 44.356897,8.9817794 43.290837,8.8695168 41.611328,8.1933594 39.931857,7.5171641 39.085893,6.8616609 38.585938,6.2890625 38.085977,5.7164641 37.89933,5.2005721 37.617188,4.5605469 37.335234,3.9205217 36.94852,3.1493479 35.919922,2.6347656 35.024211,2.1866648 33.831597,2.0017575 32,2 Z m 0,2.0058594 c 1.681436,0.00378 2.603168,0.201842 3.027344,0.4140625 0.361701,0.1810393 0.521806,0.4055581 0.759765,0.9453125 0.238111,0.5397165 0.547117,1.3821171 1.292969,2.2363281 0.745849,0.8542488 1.901742,1.6928857 3.785156,2.4511715 1.883415,0.758325 3.298589,0.955312 4.429688,0.857422 1.131099,-0.09789 1.940136,-0.4932 2.488281,-0.716797 0.42788,-0.174614 0.734642,-0.2965947 1.210938,-0.148437 0.461404,0.12359 1.315408,0.665226 2.634765,1.957031 1.319358,1.291767 1.859606,2.122644 2.015625,2.591797 0.156095,0.46919 0.0036,0.851289 -0.132812,1.203125 -0.215055,0.549203 -0.600544,1.356061 -0.679688,2.486328 -0.07899,1.130268 0.143607,2.536933 0.9375,4.400391 0.793773,1.863458 1.651613,3.00315 2.517578,3.734375 0.865928,0.731263 1.708242,1.033412 2.244141,1.277343 0.535865,0.243781 0.782746,0.42606 0.982422,0.833985 0.253606,0.518248 0.419424,1.451553 0.451172,2.470703 l 0.0332,1 c 0,0 8.12e-4,1 -0.0332,1 -0.03024,1.01915 -0.197683,1.952458 -0.451172,2.470703 -0.199559,0.407925 -0.446557,0.590019 -0.982422,0.833985 -0.535899,0.243779 -1.378213,0.54608 -2.244141,1.277343 -0.865965,0.731266 -1.723805,1.870955 -2.517578,3.734375 -0.79378,1.863458 -1.016639,3.270123 -0.9375,4.400391 0.07899,1.130268 0.46475,1.937125 0.679688,2.486328 0.137575,0.351874 0.288907,0.733972 0.132812,1.203125 -0.156094,0.469191 -0.696267,1.30003 -2.015625,2.591797 -1.319357,1.291767 -2.173361,1.833403 -2.634765,1.957031 -0.476296,0.148158 -0.783058,0.02656 -1.210938,-0.148437 -0.548145,-0.223748 -1.357182,-0.61887 -2.488281,-0.716797 -1.131099,-0.09789 -2.546273,0.09902 -4.429688,0.857422 -1.883414,0.758286 -3.039307,1.596959 -3.785156,2.451172 -0.745852,0.854248 -1.055048,1.696573 -1.292969,2.236328 -0.23811,0.539716 -0.398177,0.764386 -0.759765,0.945312 -0.424176,0.212032 -1.345908,0.40862 -3.027344,0.414063 -1.681437,-0.0076 -2.603206,-0.201842 -3.027344,-0.414063 -0.361701,-0.181039 -0.521806,-0.405596 -0.759765,-0.945312 -0.238111,-0.539755 -0.547117,-1.382117 -1.292969,-2.236328 -0.745852,-0.85425 -1.901743,-1.692886 -3.785156,-2.451172 -1.883415,-0.758287 -3.298589,-0.95535 -4.429688,-0.857422 -1.1311,0.09789 -1.940136,0.4932 -2.488281,0.716797 -0.427918,0.174614 -0.734642,0.296595 -1.210938,0.148437 -0.461405,-0.12359 -1.315408,-0.665264 -2.634765,-1.957031 -1.319358,-1.291767 -1.859569,-2.122606 -2.015625,-2.591797 -0.156095,-0.469191 -0.0036,-0.851289 0.132812,-1.203125 0.215055,-0.549203 0.600582,-1.35606 0.679688,-2.486328 0.07899,-1.130268 -0.143648,-2.536933 -0.9375,-4.400391 C 9.4366543,39.452986 8.5788182,38.313297 7.7128906,37.582031 6.8469253,36.850806 6.0046118,36.548622 5.46875,36.304688 4.9328508,36.060907 4.6860006,35.878628 4.4863281,35.470703 4.2327218,34.952458 4.0668666,34.01915 4.0351562,33 L 4.0019531,31.992188 4.0351562,31 c 0.030236,-1.01915 0.197679,-1.952455 0.4511719,-2.470703 0.1995591,-0.407925 0.4465227,-0.590052 0.9824219,-0.833985 0.5358618,-0.243779 1.3781753,-0.54608 2.2441406,-1.277343 0.8659276,-0.731225 1.7237637,-1.870955 2.5175784,-3.734375 0.793776,-1.863421 1.016681,-3.270123 0.9375,-4.400391 -0.07899,-1.130267 -0.464746,-1.937125 -0.679688,-2.486328 -0.137575,-0.351874 -0.288907,-0.733935 -0.132812,-1.203125 0.156094,-0.469154 0.696267,-1.30003 2.015625,-2.591797 1.319357,-1.291805 2.17336,-1.833365 2.634765,-1.957031 0.476296,-0.1481577 0.78302,-0.02656 1.210938,0.148437 0.548145,0.223748 1.357181,0.618907 2.488281,0.716797 1.131099,0.09789 2.546273,-0.09902 4.429688,-0.857422 C 25.018179,9.2944482 26.17407,8.4558113 26.919922,7.6015625 27.665774,6.7473515 27.974969,5.9049509 28.212891,5.3652344 28.451001,4.82548 28.61103,4.6008101 28.972656,4.4199219 29.396794,4.2075124 30.318563,4.0118684 32,4.0058594 Z m 0,5.9921875 C 28.669516,9.9978749 25.996094,12.698205 25.996094,16 c 0,0.04006 -0.0026,0.05955 -0.002,0.09961 C 21.781932,17.691924 18.36157,20.894791 16.505859,25 H 13 c -0.734211,0.01134 -1.150127,0.707411 -0.945312,1.316406 l 3.99414,12 c 0.07181,0.212032 0.220356,0.400361 0.378906,0.507813 3.087156,7.041826 10.547256,11.150295 18.164063,9.976562 7.688427,-1.184768 13.600366,-7.447077 14.335937,-15.191406 0.725707,-7.640617 -3.763865,-14.813401 -10.921875,-17.511719 6.43e-4,-0.03402 -0.0039,-0.06213 -0.0039,-0.09766 0,-3.301795 -2.671506,-6.0017812 -6.001953,-6.0019531 z M 26.376953,18.09375 c 0.865248,2.298008 3.047727,3.908203 5.621094,3.908203 2.573367,0 4.770638,-1.635295 5.625,-3.904297 6.134435,2.474759 9.940741,8.685504 9.310547,15.320313 -0.118299,1.244485 -0.391092,2.442289 -0.792969,3.580078 h -2.425781 c 0.03402,-0.09335 0.06887,-0.186762 0.0957,-0.28125 0.324661,-1.144176 0.200542,-2.438165 -0.132813,-3.423828 -1.549417,-4.338444 -5.129683,-7.637082 -9.574218,-8.822266 -2.95132,-0.787011 -6.036662,-0.572334 -8.800782,0.53125 L 18.736328,25 c 1.64999,-3.127219 4.353379,-5.576517 7.640625,-6.90625 z m 4.287109,7.908203 c 0.976216,0.01508 1.958348,0.144768 2.923829,0.402344 3.808138,1.015483 6.870513,3.835617 8.201171,7.544922 0.242648,0.718186 0.272208,1.600735 0.0957,2.222656 -0.08844,0.311811 -0.218397,0.524014 -0.347657,0.642578 -0.102803,0.09449 -0.246413,0.183594 -0.539062,0.183594 H 30.996094 C 30.424781,36.998047 30,36.54201 30,36.001953 c 0,-0.540057 0.424781,-1.003906 0.996094,-1.003906 h 6.496094 c 0.775707,-0.0016 1.270939,-0.821981 0.857421,-1.513672 -0.828019,-1.36441 -1.990819,-2.491731 -3.351562,-3.277344 -1.156573,-0.669619 -2.16048,1.064756 -1.003906,1.734375 0.66546,0.384189 1.039059,0.715777 1.419921,1.054688 h -4.417968 c -0.200693,0 -0.395714,0.01891 -0.585938,0.05859 l -2.27539,-6.808594 c 0.830513,-0.167433 1.676635,-0.25582 2.529296,-0.244141 z M 21,29 c 0.552264,0 1,0.447697 1,1 0,0.552264 -0.447736,1 -1,1 -0.552303,0 -1,-0.447736 -1,-1 0,-0.552303 0.447697,-1 1,-1 z m -2.265625,9.998047 h 12.261719 10.001953 4.259765 c -2.166916,4.101279 -6.170706,7.085611 -10.976562,7.826172 -6.370243,0.981656 -12.587505,-2.206355 -15.546875,-7.826172 z" transform="scale(0.2645833492279053) " id="path851" inkscape:connector-curvature="0" sodipodi:nodetypes="cccccccccccccccccccccccccccccccccccccccccccccccccccccccccccccccccccccccccccccccccccccccccccccccccccccccccccccccccccccccccccccccccccccccccccccccccccccccccccccccccccccccccccccccccccccccccccccc" fill="#ffffff" fill-opacity="1"/>
  </g></g></svg>